<svg version="1.1" id="Ebene_1" xmlns="http://www.w3.org/2000/svg" xmlns:xlink="http://www.w3.org/1999/xlink" x="0px" y="0px"
	 viewBox="0 0 550 165.5" enable-background="new 0 0 550 165.5" xml:space="preserve">
<g>
	<path fill="#FFFFFF" d="M12,9.8h8.1v9.7H12V9.8z M12,32.3h8.1v51.5H12V32.3z"/>
	<path fill="#FFFFFF" d="M29.4,32.3h8.1v7.8h0.6c1.7-3.3,4.4-5.5,7.9-6.7c3.6-1.2,9.6-1.7,18-1.7c7.4,0,12.8,0.4,16.4,1.2
		c3.6,0.8,6.4,2.3,8.4,4.4c1.6,1.7,2.7,3.8,3.3,6.4c0.6,2.5,0.9,6.2,0.9,11v29.1H85V58.2c0-4.6-0.2-7.9-0.6-9.9
		c-0.4-2-1.1-3.7-2.3-5.1c-1.4-1.6-3.5-2.7-6.3-3.4c-2.8-0.7-7.1-1-12.7-1c-6.3,0-11.2,0.5-14.7,1.4c-3.5,0.9-6.1,2.4-7.9,4.5
		c-1.2,1.5-2,3.2-2.4,5.1c-0.4,1.9-0.6,5.3-0.6,10.1v23.8h-8.1V32.3z"/>
	<path fill="#FFFFFF" d="M184.6,75.3v8.5h-81.8c-0.1-2.8-0.2-5.5-0.2-8c0-8,0.8-13.6,2.5-16.8c1.3-2.5,3.1-4.4,5.4-5.8
		c2.3-1.4,5.4-2.4,9.4-3.2c3-0.5,11.3-1.2,24.7-2c8.4-0.5,14.2-0.9,17.4-1.3c3.2-0.4,5.6-0.9,7.3-1.7c2-0.9,3.5-2.3,4.4-4.1
		c0.9-1.8,1.4-4.3,1.4-7.5c0-6.7-1.7-10.9-5.2-12.6c-3.5-1.8-12.2-2.7-26.1-2.7c-4.8,0-9.6,0.2-14.4,0.5c-4.8,0.3-8.1,0.8-9.8,1.2
		c-2,0.5-3.6,1.4-4.6,2.6c-1,1.2-1.7,2.9-2,5.1c-0.2,1.3-0.3,4.8-0.4,10.3H103c0-6.4,0.2-11,0.7-13.6c0.5-2.6,1.4-4.9,2.9-6.9
		c1.6-2,3.4-3.6,5.6-4.7c2.2-1.1,4.9-1.9,8.2-2.4c5-0.7,11.3-1,18.9-1c5.2,0,11,0.2,17.5,0.5c6.5,0.3,10.9,0.7,13.2,1.2
		c2.9,0.5,5.4,1.5,7.5,3.1c2.2,1.6,3.7,3.6,4.7,5.9c1.2,2.7,1.7,6.8,1.7,12.2c0,4.5-0.4,8-1.2,10.6c-0.8,2.5-2.3,4.7-4.3,6.5
		c-2,1.7-4.3,3-7.1,3.9c-2.7,0.9-6.5,1.5-11.3,2c-7.7,0.7-18.1,1.4-31.2,2.1c-5.1,0.3-8.7,0.9-11,1.8c-2.2,0.9-3.8,2.5-4.6,4.8
		c-0.7,1.7-1,5.5-1,11.3H184.6z"/>
	<path fill="#FFFFFF" d="M244.7,62.7h20c-0.2,4.4-0.6,7.7-1.3,10c-0.7,2.3-1.9,4.3-3.6,6c-2.5,2.6-5.9,4.3-10.2,5.1
		c-4.3,0.8-11.6,1.3-21.9,1.3c-8.1,0-14.2-0.3-18.2-1c-4-0.7-7.4-2-10-3.8c-2.5-1.8-4.3-4.4-5.3-7.7c-1-3.3-1.5-8.5-1.5-15.4
		c0-6.3,0.5-11.1,1.4-14.3c0.9-3.2,2.5-5.8,4.8-7.6c2.5-2,5.9-3.4,10.1-4.2c4.2-0.8,10.7-1.1,19.6-1.1c8.7,0,15.3,0.4,19.7,1.2
		c4.4,0.8,7.9,2.2,10.4,4.2c2.1,1.7,3.6,3.8,4.4,6.3c0.8,2.5,1.4,6.2,1.5,11.1h-20c-0.3-3-1.7-5.1-4-6.2c-2.3-1.1-6.4-1.7-12.1-1.7
		c-5.8,0-9.9,0.5-12.2,1.6c-1.4,0.7-2.5,2-3.1,3.7c-0.6,1.8-0.9,4.3-0.9,7.8c0,3.4,0.3,5.8,1,7.4c0.7,1.6,1.8,2.7,3.5,3.5
		c2.5,1.1,6.5,1.6,12,1.6c5.8,0,9.8-0.5,11.9-1.6C243,67.7,244.3,65.7,244.7,62.7z"/>
	<path fill="#FFFFFF" d="M307.7,29.9c8.9,0,15.6,0.4,20,1.1c4.4,0.7,7.9,2,10.4,3.8c2.6,1.9,4.4,4.3,5.3,7.4c0.9,3,1.4,7.8,1.4,14.4
		c0,4.9-0.1,8.5-0.4,11c-0.3,2.4-0.8,4.6-1.5,6.6c-1.9,4.9-5.7,8-11.4,9.4c-4.8,1.1-12.7,1.7-23.8,1.7c-9.8,0-16.8-0.4-21-1.1
		c-4.2-0.7-7.6-2.1-10.1-4.2c-2.4-2-4-4.6-4.9-7.8c-0.8-3.2-1.2-8.6-1.2-16.3c0-4.3,0.2-7.6,0.5-9.9c0.3-2.3,1-4.3,2-6.2
		c2-3.8,5.4-6.4,10.1-7.8C287.8,30.6,296,29.9,307.7,29.9z M307.8,44.7c-6.5,0-10.9,0.5-13.2,1.5c-1.7,0.8-2.8,2-3.5,3.8
		c-0.7,1.8-1,4.4-1,7.9c0,3.4,0.3,5.9,0.9,7.4c0.6,1.5,1.7,2.6,3.3,3.4c2.5,1.2,7,1.7,13.5,1.7c7.4,0,12.2-0.8,14.3-2.3
		c2.1-1.6,3.1-5.1,3.1-10.6c0-3.5-0.3-6-1-7.6c-0.7-1.6-1.8-2.7-3.5-3.5C318.2,45.2,313.9,44.7,307.8,44.7z"/>
	<path fill="#FFFFFF" d="M424.8,9.8v74h-18.5v-6.9h-1.1c-1.4,2.4-2.9,4.1-4.6,5c-3.6,2.1-9.8,3.2-18.7,3.2c-7.1,0-12.5-0.4-16.4-1.2
		c-3.8-0.8-6.9-2.3-9.1-4.3c-2.2-2-3.7-4.5-4.5-7.8c-0.8-3.2-1.2-8.1-1.2-14.6c0-4.5,0.2-8.2,0.7-10.9c0.5-2.7,1.2-5.2,2.3-7.3
		c2.1-3.9,5.7-6.5,10.8-7.8c3.8-0.9,9.7-1.4,17.6-1.4c6.9,0,11.9,0.6,14.8,1.7c3,1.1,5.4,3.4,7.3,6.7h0.8V9.8H424.8z M388.6,44.7
		c-7.7,0-12.7,0.7-14.9,2.2c-2.2,1.5-3.3,4.8-3.3,10c0,3.9,0.3,6.8,1,8.4c0.7,1.7,1.9,2.9,3.6,3.6c2.4,0.9,6.5,1.4,12.4,1.4
		c7.3,0,12.2-0.8,14.6-2.3c1.2-0.7,2-1.9,2.5-3.5c0.5-1.6,0.7-3.9,0.7-7c0-3.6-0.3-6.2-1-7.9c-0.7-1.7-1.8-2.8-3.5-3.5
		C398.4,45.2,394.3,44.7,388.6,44.7z"/>
	<path fill="#FFFFFF" d="M483.3,67h19.6c-0.5,5.7-2.3,9.8-5.2,12.3c-2.5,2.2-6.1,3.7-10.7,4.6c-4.6,0.8-11.6,1.3-20.8,1.3
		c-7.6,0-13.5-0.4-17.6-1.1c-4.1-0.7-7.3-2-9.7-3.8c-2.5-1.9-4.3-4.5-5.2-7.7c-0.9-3.2-1.4-8.1-1.4-14.8c0-5,0.2-8.7,0.5-11.3
		c0.4-2.5,1-4.8,2.1-6.8c2.1-4.2,5.9-6.9,11.4-8.2c4.7-1.1,12-1.6,21.9-1.6c8.8,0,14.9,0.3,18.5,0.9c6.4,1.1,10.7,3.5,13.1,7.1
		c2.4,3.7,3.6,9.8,3.6,18.5c0,0.8,0,2.6-0.1,5.3h-51.4c0,2.7,0.2,4.6,0.5,5.7c0.3,1.2,1,2.1,2,2.9c2,1.4,6.4,2.2,13.2,2.2
		c4.4,0,7.7-0.2,9.8-0.5c2.2-0.3,3.7-0.9,4.5-1.7C482.6,69.7,483,68.6,483.3,67z M483.6,51c-0.1-2.1-0.2-3.5-0.4-4.3
		c-0.2-0.8-0.6-1.5-1.2-2.1c-1.7-1.7-6.2-2.6-13.6-2.6c-6.6,0-11,0.6-13.1,1.7c-2.1,1.2-3.3,3.6-3.4,7.2H483.6z"/>
	<path fill="#FFFFFF" d="M512.5,64.1h23.7v19.7h-23.7V64.1z"/>
</g>
<g>
	<path fill="#FFFFFF" d="M10.1,116.6h5.3l14.9,32.6h1.5l14.4-32.6h6.1l13.9,32.6h1.5L83,116.6h5.4L71,153.4h-8.3l-13.4-31.4
		l-14,31.4H27L10.1,116.6z"/>
	<path fill="#FFFFFF" d="M90.9,116.6h4v4.8h-4V116.6z M90.9,127.8h4v25.6h-4V127.8z"/>
	<path fill="#FFFFFF" d="M99.5,127.8h4v3.4h0.3c0.6-1.1,1.6-2.1,2.9-2.7c0.8-0.4,1.8-0.7,3.1-0.8c1.3-0.2,3.2-0.2,5.7-0.2
		c2.5,0,4.4,0.1,5.6,0.4c1.2,0.3,2.3,0.8,3.2,1.5c1.7,1.5,2.6,3.9,2.6,7.2v2.6h-4.1v-1.8c0-1.4-0.1-2.5-0.3-3.2
		c-0.2-0.7-0.5-1.3-1-1.8c-1-1-3.2-1.4-6.4-1.4c-4.9,0-8,0.6-9.4,1.9c-1.4,1.3-2.1,4.1-2.1,8.6v11.8h-4V127.8z"/>
	<path fill="#FFFFFF" d="M143.1,116.6h4v36.8h-4V116.6z"/>
	<path fill="#FFFFFF" d="M179.7,145.5h4.2c-0.1,3.1-1.1,5.2-3.2,6.4c-2.1,1.2-5.7,1.8-10.9,1.8c-4.3,0-7.5-0.2-9.7-0.5
		c-2.2-0.3-3.9-0.9-5-1.7c-2.6-1.8-3.9-5.4-3.9-10.9c0-3.8,0.5-6.6,1.6-8.5c1-1.8,2.5-3,4.5-3.7c2-0.6,5.2-1,9.8-1
		c4.4,0,7.6,0.2,9.5,0.7c2,0.5,3.5,1.4,4.7,2.7c1,1.1,1.6,2.4,2,3.9c0.4,1.5,0.6,3.7,0.6,6.7h-28.5c0.1,3.2,0.7,5.4,1.9,6.5
		c0.8,0.8,2,1.4,3.7,1.7c1.7,0.3,4.5,0.4,8.3,0.4c2.9,0,5-0.1,6.4-0.4c1.3-0.3,2.4-0.8,3-1.5C179.3,147.7,179.6,146.8,179.7,145.5z
		 M179.5,138c0-2.5-0.7-4.2-2-5.2c-0.9-0.7-2.1-1.1-3.6-1.4c-1.6-0.3-3.8-0.4-6.8-0.4c-2.6,0-4.6,0.1-6,0.4
		c-1.4,0.2-2.4,0.7-3.2,1.3c-1.3,1-2,2.8-2.2,5.4H179.5z"/>
	<path fill="#FFFFFF" d="M187.9,116.6h4v14.3h0.2c0.9-1.4,2.1-2.3,3.6-2.7c1.5-0.4,4.1-0.7,7.7-0.7c4.2,0,7.2,0.1,9,0.4
		c1.8,0.3,3.2,0.8,4.4,1.6c1.4,1,2.4,2.3,3,3.9c0.7,1.8,1.1,4.3,1.1,7.6c0,3.6-0.5,6.3-1.6,8.2c-1.4,2.4-4,3.8-7.7,4.3
		c-1.5,0.2-4,0.3-7.5,0.3c-4.1,0-6.9-0.2-8.4-0.7c-1.5-0.4-2.8-1.4-3.7-2.9h-0.2v3.3h-4V116.6z M203.6,131c-2.7,0-4.7,0.1-6.1,0.3
		c-1.4,0.2-2.4,0.6-3.2,1.2c-0.9,0.6-1.6,1.6-2,2.8c-0.4,1.2-0.6,3-0.6,5.3c0,3,0.3,5.1,1,6.3c0.8,1.3,2,2.2,3.6,2.6
		c1.7,0.4,4.7,0.6,9.3,0.6c2.4,0,4.2-0.1,5.4-0.4c1.3-0.2,2.3-0.6,3.2-1.2c0.9-0.6,1.5-1.5,1.9-2.7c0.4-1.2,0.6-3,0.6-5.1
		c0-2.9-0.3-5-1-6.3c-0.7-1.3-1.9-2.2-3.4-2.7C210.7,131.3,207.8,131,203.6,131z"/>
	<path fill="#FFFFFF" d="M252.8,145.5h4.2c-0.1,3.1-1.1,5.2-3.2,6.4c-2.1,1.2-5.7,1.8-10.9,1.8c-4.3,0-7.5-0.2-9.7-0.5
		c-2.2-0.3-3.9-0.9-5-1.7c-2.6-1.8-3.9-5.4-3.9-10.9c0-3.8,0.5-6.6,1.6-8.5c1-1.8,2.5-3,4.5-3.7c2-0.6,5.2-1,9.8-1
		c4.4,0,7.6,0.2,9.5,0.7c2,0.5,3.5,1.4,4.7,2.7c1,1.1,1.6,2.4,2,3.9c0.4,1.5,0.6,3.7,0.6,6.7h-28.5c0.1,3.2,0.7,5.4,1.9,6.5
		c0.8,0.8,2,1.4,3.7,1.7c1.7,0.3,4.5,0.4,8.3,0.4c2.9,0,5-0.1,6.4-0.4c1.3-0.3,2.4-0.8,3-1.5C252.4,147.7,252.7,146.8,252.8,145.5z
		 M252.6,138c0-2.5-0.7-4.2-2-5.2c-0.9-0.7-2.1-1.1-3.6-1.4c-1.6-0.3-3.8-0.4-6.8-0.4c-2.6,0-4.6,0.1-6,0.4
		c-1.4,0.2-2.4,0.7-3.2,1.3c-1.3,1-2,2.8-2.2,5.4H252.6z"/>
	<path fill="#FFFFFF" d="M260.8,127.8h4v3.9h0.3c0.9-1.6,2.2-2.7,3.9-3.3c1.8-0.6,4.8-0.9,9-0.9c3.7,0,6.4,0.2,8.1,0.6
		c1.8,0.4,3.2,1.1,4.2,2.2c0.8,0.8,1.3,1.9,1.7,3.2c0.3,1.3,0.5,3.1,0.5,5.5v14.4h-4v-12.7c0-2.3-0.1-3.9-0.3-4.9
		c-0.2-1-0.6-1.8-1.1-2.5c-0.7-0.8-1.7-1.4-3.1-1.7c-1.4-0.3-3.5-0.5-6.3-0.5c-3.1,0-5.6,0.2-7.3,0.7c-1.7,0.5-3.1,1.2-3.9,2.2
		c-0.6,0.8-1,1.6-1.2,2.5c-0.2,0.9-0.3,2.6-0.3,5v11.8h-4V127.8z"/>
	<path fill="#FFFFFF" d="M308.3,116.6H350v4.3h-18.4v32.5h-4.9v-32.5h-18.5V116.6z"/>
	<path fill="#FFFFFF" d="M351.5,116.6h6.6l17.8,17.6l17.2-17.6h6.8l-21.6,21.7v15h-4.9v-15L351.5,116.6z"/>
	<path fill="#FFFFFF" d="M401.9,153.4v-36.8h23.3c6.1,0.1,9.8,0.3,11,0.4c1.2,0.2,2.2,0.6,3.2,1.3c1,0.7,1.7,1.5,2.2,2.5
		c0.8,1.6,1.2,4,1.2,7.2c0,2.5-0.2,4.4-0.6,5.9c-0.4,1.4-1.1,2.6-2.1,3.4c-1,0.8-2,1.4-3.1,1.7c-1.1,0.3-2.7,0.5-5,0.6
		c-0.8,0-3.1,0-6.9,0.1h-18.4v13.8H401.9z M406.8,135.2h18.4c4.5,0,7.3-0.1,8.4-0.2c1.1-0.1,2-0.5,2.8-1.1c0.6-0.5,0.9-1.1,1.2-2
		c0.2-0.8,0.3-2.1,0.3-3.8c0-1.9-0.1-3.2-0.3-4c-0.2-0.8-0.6-1.4-1.1-1.8c-0.7-0.5-1.6-0.9-2.7-1c-1.1-0.1-3.9-0.2-8.5-0.3h-18.4
		V135.2z"/>
	<path fill="#FFFFFF" d="M469.7,116.5c6.3,0,10.7,0.2,13.3,0.6c2.6,0.4,4.5,1.2,5.6,2.4c0.8,0.7,1.3,1.6,1.7,2.6
		c0.4,1,0.7,2.4,0.9,4.3c0.3,2.3,0.4,5.2,0.4,8.8c0,4.5-0.2,8-0.6,10.3c-0.4,2.3-1.2,4-2.2,5.1c-1.1,1.1-2.9,1.9-5.3,2.4
		c-2.5,0.4-6.5,0.6-12.1,0.6c-2.8,0-5.8,0-9.2-0.1c-3.4-0.1-5.6-0.2-6.6-0.3c-1.8-0.2-3.3-0.5-4.3-0.9c-1.1-0.4-2-1.1-2.8-1.9
		c-1.1-1.1-1.8-2.8-2.2-4.8s-0.6-5.6-0.6-10.6c0-5.9,0.4-10,1.2-12.5c1-2.9,3.2-4.6,6.7-5.1C456.6,116.8,462,116.5,469.7,116.5z
		 M466.8,120.9c-5.1,0-8.9,0.2-11.3,0.6c-1.4,0.2-2.4,0.6-3,1.2c-0.6,0.6-1.1,1.5-1.3,2.8c-0.4,2-0.6,5-0.6,9c0,4.1,0.1,7,0.3,8.9
		c0.2,1.9,0.6,3.1,1.2,3.7c0.5,0.5,1.1,0.9,2,1.1c0.9,0.2,2.3,0.4,4.2,0.5c3.1,0.2,6.8,0.3,11,0.3c5.9,0,10.2-0.2,12.9-0.7
		c2.1-0.4,3.4-1.6,3.8-3.7c0.4-2.3,0.6-5.4,0.6-9.4c0-4.8-0.2-8.2-0.5-10.2c-0.4-2-1.8-3.2-4.2-3.6c-1.4-0.2-3-0.4-4.8-0.4
		C475.3,121,471.9,120.9,466.8,120.9z"/>
	<path fill="#FFFFFF" d="M495.8,140.9h4.8c0,0.7,0,1.2,0,1.5c0,2,0.2,3.5,0.5,4.3c0.3,0.8,0.9,1.4,1.8,1.7c0.6,0.2,2.4,0.4,5.2,0.6
		c2.9,0.2,6,0.2,9.5,0.2c2.7,0,5.3-0.1,7.6-0.2c2.3-0.2,3.8-0.4,4.5-0.6c0.9-0.3,1.5-0.9,1.8-1.8c0.3-0.9,0.5-2.3,0.5-4.2
		c0-1.6-0.2-2.7-0.6-3.4c-0.4-0.7-1.1-1.3-2.1-1.6c-0.4-0.1-1.4-0.3-3.2-0.4c-1.8-0.1-3.3-0.2-4.5-0.2h-10.4v-4.2h11.8
		c3.6,0,6-0.3,7-1c1-0.7,1.6-2.2,1.6-4.5c0-1.6-0.2-2.8-0.6-3.6c-0.4-0.8-1-1.4-1.9-1.7c-1.5-0.5-5.7-0.8-12.5-0.8
		c-7.8,0-12.5,0.4-13.9,1.1c-0.6,0.3-1,0.8-1.2,1.5c-0.2,0.7-0.3,1.8-0.3,3.4l0,2h-5c0.1-3.3,0.2-5.5,0.6-6.8
		c0.3-1.3,0.9-2.3,1.9-3.2c0.7-0.6,1.6-1.1,2.5-1.4c0.9-0.3,2.2-0.5,3.9-0.6c2.5-0.2,6.4-0.3,11.8-0.3c5.4,0,9.2,0.1,11.5,0.4
		c2.3,0.3,4,0.7,5.1,1.5c1.2,0.8,2,1.7,2.5,2.8c0.5,1.1,0.7,2.8,0.7,4.9c0,2.7-0.3,4.6-0.8,5.7c-0.6,1-1.8,1.9-3.7,2.7
		c1.9,0.5,3.2,1.4,3.9,2.5c0.7,1.2,1,3.2,1,6c0,3.1-0.5,5.4-1.4,6.7c-0.7,1-1.6,1.8-2.7,2.3c-1.1,0.5-2.5,0.9-4.3,1.1
		c-2.3,0.2-6.2,0.3-11.7,0.3c-7.5,0-12.5-0.2-15.1-0.7c-1.4-0.3-2.6-0.8-3.6-1.7c-1-0.9-1.7-1.9-1.9-3.1
		C496,146.6,495.8,144.2,495.8,140.9z"/>
</g>
</svg>
